# xmcd
#
# Track frame offsets: 
#        150
#        16903
#        34005
#        51573
#        67101
#        86303
#        106697
#        127494
#        144406
#        164226
#        184725
#        208010
#        229441
#        253898
#        269326
#        281958
#        299439
#        320855
#        334163
#
# Disc length: 4635 seconds
#
# Revision: 3
# Processed by: cddbd v1.5.2PL0 Copyright (c) Steve Scherf et al.
# Submitted via: ExactAudioCopy v0.99pb5
#
DISCID=3e121913
DTITLE=Various Artist - Metal for the Masses V [CD2]
DYEAR=2006
DGENRE=Metal
TTITLE0=Mnemic/Meaningless
TTITLE1=Threat Signal/One Last Breath
TTITLE2=All Shall Perish/Eradication
TTITLE3=I/The Storm I Ride
TTITLE4=Hammerfall/Natural High
TTITLE5=Scar Symmetry/The Illusionist
TTITLE6=Blind Guardian/Another Stranger Me
TTITLE7=Chrome Division/Seral Killer
TTITLE8=Belphegor/Hell's Ambassador
TTITLE9=Kataklysm/Crippled and Broken
TTITLE10=Therion/Son of the Slaves of Time
TTITLE11=Echoes of Eternity/The Forgotten Goddess
TTITLE12=Meshuggah/Rational Gaze
TTITLE13=Fu Manchu/Hung out to Dry
TTITLE14=Crash Kelly/Ride the Wire
TTITLE15=Crucified Barbara/Losing the Game
TTITLE16=Fireball Ministry/The Broken
TTITLE17=The Illuminati/Impressions
TTITLE18=Nebula/Ghost Ride
EXTD=YEAR: 2006
EXTT0=
EXTT1=
EXTT2=
EXTT3=
EXTT4=
EXTT5=
EXTT6=
EXTT7=
EXTT8=
EXTT9=
EXTT10=
EXTT11=
EXTT12=
EXTT13=
EXTT14=
EXTT15=
EXTT16=
EXTT17=
EXTT18=
PLAYORDER=
